<?xml version="1.0" encoding="utf-8"?>
<!DOCTYPE svg PUBLIC "-//W3C//DTD SVG 1.1//EN" "http://www.w3.org/Graphics/SVG/1.1/DTD/svg11.dtd">
<svg version="1.1" id="图形" xmlns="http://www.w3.org/2000/svg" xmlns:xlink="http://www.w3.org/1999/xlink" x="0px" y="0px" width="1024px" height="1024px" viewBox="0 0 1024 1024" enable-background="new 0 0 1024 1024" xml:space="preserve">
  <path fill="#272636" d="M512-180c-70.592 0-128 57.44-128 128 0 70.624 57.408 128 128 128s128-57.376 128-128C640-122.56 582.592-180 512-180zM512 12c-35.296 0-64-28.672-64-64 0-35.264 28.704-64 64-64s64 28.736 64 64C576-16.672 547.296 12 512 12zM351.968-79.2c-4.896 0-9.888 1.12-14.56 3.488-98.304 50.368-169.984 140.928-197.056 246.816C136.288 170.624 132.16 170.304 128 170.304c-52.928 0-96 43.072-96 96s43.072 96 96 96c4.16 0 8.288-0.288 12.352-0.768 23.648 92.448 81.28 173.568 161.984 226.4 14.784 9.728 34.592 5.536 44.32-9.248 9.664-14.784 5.536-34.624-9.248-44.288-76.32-49.984-127.872-130.24-141.408-220.224-1.664-10.944-8.832-20.224-18.976-24.608-10.08-4.384-21.824-3.264-30.944 3.072C140.672 296.384 134.432 298.304 128 298.304c-17.664 0-32-14.304-32-32 0-17.632 14.336-32 32-32 6.432 0 12.672 2.016 18.048 5.696 9.12 6.304 20.832 7.424 30.944 3.136 10.144-4.384 17.312-13.696 18.976-24.64 15.296-101.632 79.072-190.304 170.624-237.248 15.712-8.064 21.952-27.328 13.888-43.072C374.816-72.864 363.584-79.2 351.968-79.2zM672.672-78.88c-11.584 0-22.816 6.304-28.48 17.376-8.096 15.68-1.952 35.008 13.792 43.072 91.264 47.008 154.816 135.552 170.016 236.928 1.664 10.944 8.8 20.256 18.976 24.64 10.08 4.32 21.856 3.2 30.944-3.136 5.376-3.68 11.616-5.696 18.08-5.696 17.664 0 32 14.368 32 32 0 17.696-14.336 32-32 32-6.464 0-12.704-1.952-18.08-5.696-9.088-6.304-20.832-7.424-30.944-3.072-10.144 4.384-17.312 13.664-18.976 24.608-13.504 89.952-65.056 170.208-141.408 220.192-14.784 9.664-18.912 29.504-9.248 44.288 9.728 14.72 29.536 18.944 44.32 9.248 80.704-52.864 138.336-133.952 161.984-226.368 4.096 0.512 8.224 0.768 12.384 0.768 52.928 0 96-43.072 96-96s-43.072-96-96-96c-4.16 0-8.288 0.32-12.384 0.8-27.04-105.568-98.368-196-196.352-246.432C682.592-77.76 677.6-78.88 672.672-78.88zM466.176 419.296c-17.696 0-32 14.336-32 32s14.304 32 32 32c72.544 0 131.552 59.04 131.552 131.584 0 54.528-44.32 98.88-98.816 98.88-40.096 0-72.672-32.64-72.672-72.704 0-28.544 23.232-51.744 51.744-51.744 19.328 0 35.008 15.712 35.008 35.008 0 17.664 14.304 32 32 32s32-14.336 32-32c0-54.592-44.416-99.008-99.008-99.008-63.808 0-115.744 51.936-115.744 115.744 0 75.392 61.312 136.704 136.672 136.704 89.792 0 162.816-73.056 162.816-162.88C661.76 507.04 574.016 419.296 466.176 419.296zM370.24 282.304m-48 0a1.5 1.5 0 1 0 96 0 1.5 1.5 0 1 0-96 0ZM658.24 282.304m-48 0a1.5 1.5 0 1 0 96 0 1.5 1.5 0 1 0-96 0Z" transform="translate(0, 812) scale(1, -1)"/>
</svg>
