<?xml version="1.0" encoding="utf-8"?>
<!DOCTYPE svg PUBLIC "-//W3C//DTD SVG 1.1//EN" "http://www.w3.org/Graphics/SVG/1.1/DTD/svg11.dtd">
<svg version="1.1" id="图形" xmlns="http://www.w3.org/2000/svg" xmlns:xlink="http://www.w3.org/1999/xlink" x="0px" y="0px" width="1024px" height="1024px" viewBox="0 0 1024 1024" enable-background="new 0 0 1024 1024" xml:space="preserve">
  <path fill="#272636" d="M856.650752-112.371968c-13.666304 3.137536-22.69696 12.8256-32.093184 22.242304-71.272448 71.428096-142.470144 142.932992-214.1696 213.929984-14.227456 14.088192-23.175168 29.254656-20.20352 49.614848 2.113536 14.47936-3.304448 24.803328-14.045184 34.525184-17.03424 15.418368-32.69632 32.352256-49.380352 49.088512-3.39968-2.538496-6.197248-4.581376-8.946688-6.68672-57.394176-43.948032-122.558464-63.240192-194.179072-57.350144-126.369792 10.3936-227.221504 101.465088-252.496896 226.136064-2.036736 10.044416-2.623488 20.378624-3.995648 30.563328-0.429056 3.183616-1.221632 6.317056-1.84832 9.474048 0 9.227264 0 18.454528 0 27.680768 0.594944 2.325504 1.385472 4.621312 1.754112 6.982656 2.332672 14.953472 3.744768 30.102528 6.976512 44.855296C97.022976 643.688192 191.483904 732.376832 297.183232 748.652288c11.708416 1.803264 23.43424 3.493888 35.151872 5.236736 8.684544 0 17.369088 0 26.052608 0 15.225856-2.250752 30.728192-3.34848 45.632512-6.934528 113.96096-27.416576 187.59168-97.828864 215.442432-211.505152 21.127168-86.235136 1.60256-165.93408-52.588544-236.6976-1.44896-1.891328-2.721792-3.9168-4.574208-6.59968 15.025152-14.932992 30.856192-28.731392 44.276736-44.570624 12.53376-14.792704 26.53696-21.415936 45.722624-18.648064 15.152128 2.18624 27.295744-4.655104 37.76-15.125504 76.309504-76.35456 152.758272-152.571904 228.77184-229.219328 5.778432-5.82656 8.551424-14.636032 12.721152-22.057984 0-2.17088 0-4.34176 0-6.513664-14.821376-30.7712-37.61152-53.573632-68.388864-68.388864C860.992512-112.371968 858.821632-112.371968 856.650752-112.371968zM590.089216 472.068864c0.041984 135.151616-108.4928 244.687872-243.791872 244.22912-135.620608-0.459776-242.715648-108.772352-243.473408-243.206144-0.755712-134.060032 108.884992-243.910656 242.441216-244.002816C481.082368 228.99584 590.047232 337.14048 590.089216 472.068864zM863.164416-112.371968c30.777344 14.815232 53.567488 37.617664 68.388864 68.388864 0-22.796288 0-45.592576 0-68.388864C908.756992-112.371968 885.960704-112.371968 863.164416-112.371968zM170.175488 409.221888c-8.7808 0.10752-14.8224 5.891072-14.706688 12.128256 0.2816 15.090688-0.345088 30.319616 1.470464 45.24032 9.219072 75.762688 50.06336 128.009216 119.707648 158.205952 6.605824 2.864128 15.005696-1.11104 17.307648-7.545856 2.291712-6.40512-1.127424-13.207552-7.97696-15.556608-33.092608-11.348992-58.267648-32.924672-77.63968-61.384704-21.266432-31.24224-30.599168-65.969152-28.218368-103.84384 0.398336-6.335488 0.206848-13.135872-1.759232-19.039232C177.087488 413.606656 172.090368 411.026176 170.175488 409.221888z" transform="translate(0, 812) scale(1, -1)"/>
</svg>
