<?xml version="1.0" encoding="utf-8"?>
<!DOCTYPE svg PUBLIC "-//W3C//DTD SVG 1.1//EN" "http://www.w3.org/Graphics/SVG/1.1/DTD/svg11.dtd">
<svg version="1.1" id="图形" xmlns="http://www.w3.org/2000/svg" xmlns:xlink="http://www.w3.org/1999/xlink" x="0px" y="0px" width="1024px" height="1024px" viewBox="0 0 1024 1024" enable-background="new 0 0 1024 1024" xml:space="preserve">
  <path fill="#272636" d="M462.663338 581.520745l0-132.74021 0-26.130124 25.825179 3.976568c19.955494 3.059686 39.842427 4.612041 59.07342 4.612041 214.406185 0 388.834866-174.439938 388.834866-388.848169 0-3.093455-0.033769-6.175653-0.102331-9.269108C864.679411 154.461299 716.131167 233.931259 547.561937 233.931259c-21.201881 0-43.163055-1.428535-65.305355-4.227278l-19.593244-2.480494 0-19.751856 0-139.765207L286.693558 192.741138 101.013625 324.607444 286.693558 456.496264 462.663338 581.520745M485.090117 624.93144 273.707802 474.774559 62.303998 324.607444l211.404828-150.144602 211.381291-150.167115L485.090117 207.47163c20.374026 2.572592 41.201377 4.034896 62.47182 4.034896 195.063651 0 358.273826-112.036679 400.529209-262.32966 6.935969 29.983895 10.720156 61.146639 10.720156 93.213985 0 227.121787-184.117344 411.261645-411.249365 411.261645-21.270443 0-42.097794-1.755993-62.47182-4.871961L485.090117 624.93144 485.090117 624.93144z" transform="translate(0, 812) scale(1, -1)"/>
</svg>
