<?xml version="1.0" encoding="utf-8"?>
<!DOCTYPE svg PUBLIC "-//W3C//DTD SVG 1.1//EN" "http://www.w3.org/Graphics/SVG/1.1/DTD/svg11.dtd">
<svg version="1.1" id="图形" xmlns="http://www.w3.org/2000/svg" xmlns:xlink="http://www.w3.org/1999/xlink" x="0px" y="0px" width="1024px" height="1024px" viewBox="0 0 1024 1024" enable-background="new 0 0 1024 1024" xml:space="preserve">
  <path fill="#272636" d="M751.363413 421.395838c-0.324402-11.266601 0.711228-22.482037 0.407293-33.816177-0.961948-35.853579-9.464956-69.701478-23.092897-102.557794-7.422351-17.895579-17.086861-34.542724-27.990646-50.485835-2.449898-3.581572-2.707782-5.871731 0.499394-9.507538 18.867488-21.38403 39.913687-40.606837 59.844435-60.927651 21.338876-21.756513 43.11677-43.082214 64.543654-64.753793 15.832235-16.012695 31.358488-32.326243 47.112948-48.416709 12.394805-12.659321 13.057935-30.376844 1.077587-43.218314-7.263732-7.786337-14.816049-15.329127-22.599643-22.596647-12.829728-11.978822-30.495805-11.256368-43.224221 1.068332-55.87384 54.104245-110.648603 109.315708-165.744698 164.204829-3.137588 3.1262-6.811412 5.710049-10.022682 8.768711-3.191826 3.040243-5.469801 0.550539-7.778477-1.058099-25.174389-17.533328-52.586843-30.318516-81.917053-39.210024-19.64728-5.955642-39.684457-9.458419-60.093109-11.487635-47.68807-4.740978-93.412334 3.318582-137.565756 20.98494-27.448271 10.982122-52.43334 26.211988-75.295984 45.162596-35.033335 29.037337-62.033379 64.025199-81.135214 105.257276-12.764234 27.550473-20.46903 56.45478-24.431438 86.504166-1.713086 12.991895-2.889938 26.112728-2.570653 39.053458 1.670106 67.708078 22.062384 129.299855 65.032815 182.041056 45.759057 56.164161 104.247555 92.062765 176.040614 105.692181 17.800135 3.378957 35.787543 5.320169 53.576421 5.197372 41.994156-0.288572 82.890258-7.813966 121.389676-25.598005 30.736292-14.198374 58.526361-32.531927 83.175772-56.04955 45.609648-43.515073 74.445581-95.871511 86.383972-157.647483 1.165595-6.031367 1.719227-12.186554 3.01888-18.184151C751.328619 433.706211 751.580363 427.58684 751.363413 421.395838zM681.507553 401.170191c0.300865 124.636648-99.332409 224.354767-222.659285 224.995357-126.767376 0.657986-225.496009-99.679233-226.166302-223.061308-0.687691-126.644375 100.407949-224.12657 221.177475-225.772047C580.874468 175.600759 681.657986 278.231207 681.507553 401.170191z" transform="translate(0, 812) scale(1, -1)"/>
</svg>
