<?xml version="1.0" encoding="utf-8"?>
<!DOCTYPE svg PUBLIC "-//W3C//DTD SVG 1.1//EN" "http://www.w3.org/Graphics/SVG/1.1/DTD/svg11.dtd">
<svg version="1.1" id="图形" xmlns="http://www.w3.org/2000/svg" xmlns:xlink="http://www.w3.org/1999/xlink" x="0px" y="0px" width="1024px" height="1024px" viewBox="0 0 1024 1024" enable-background="new 0 0 1024 1024" xml:space="preserve">
  <path fill="#272636" d="M954.114-113.5916 670.25 170.2746c54.5034 61.2004 87.639 141.8435 87.639 230.2269 0 191.3119-155.0674 346.3782-346.3383 346.3782-191.2914 0-346.3793-155.0674-346.3793-346.3782 0-191.2515 155.0879-346.3393 346.3793-346.3393 88.1551 0 168.6036 32.9615 229.7405 87.2069l283.8927-283.8927c7.7896-7.8121 20.5793-7.6524 28.5706 0.3615C961.7684-134.1709 961.9272-121.3842 954.114-113.5916zM106.0905 400.5015c0 168.4337 137.0245 305.4582 305.4592 305.4582 168.4142 0 305.4193-137.0245 305.4193-305.4582 0-168.4142-137.0051-305.4193-305.4193-305.4193C243.116 95.0833 106.0905 232.0873 106.0905 400.5015z" transform="translate(0, 812) scale(1, -1)"/>
</svg>
