<svg xmlns="http://www.w3.org/2000/svg" style="width:0; height:0; visibility:hidden;">
    <symbol id="aboutcolor" viewBox="0 0 48 48">
       <path fill="#2196F3" d="M37,40H11l-6,6V12c0-3.3,2.7-6,6-6h26c3.3,0,6,2.7,6,6v22C43,37.3,40.3,40,37,40z"/> <g fill="#fff"> <rect x="22" y="20" width="4" height="11"/> <circle cx="24" cy="15" r="2"/> </g>
    </symbol>
    <symbol id="cancel" viewBox="0 0 32 32">
      <path d="M16 3C8.832 3 3 8.832 3 16s5.832 13 13 13 13-5.832 13-13S23.168 3 16 3zm0 2c6.087 0 11 4.913 11 11s-4.913 11-11 11S5 22.087 5 16 9.913 5 16 5zm-3.78 5.78l-1.44 1.44L14.564 16l-3.782 3.78 1.44 1.44L16 17.437l3.78 3.78 1.44-1.437L17.437 16l3.78-3.78-1.437-1.44L16 14.564l-3.78-3.782z"/>
    </symbol>
    <symbol id="chartcolor" viewBox="0 0 48 48">
       <path fill="#00BCD4" d="M24,30c-3.3,0-6-2.7-6-6s2.7-6,6-6V5C13.5,5,5,13.5,5,24s8.5,19,19,19c4.4,0,8.5-1.5,11.8-4.1l-8-10.2 C26.7,29.5,25.4,30,24,30z"/> <path fill="#448AFF" d="M30,24h13c0-10.5-8.5-19-19-19v13C27.3,18,30,20.7,30,24z"/> <path fill="#3F51B5" d="M43,24H30c0,1.9-0.9,3.6-2.3,4.7l8,10.2C40.2,35.4,43,30,43,24z"/>
    </symbol>
    <symbol id="download" viewBox="0 0 32 32">
      <path d="M16 5c-4.12 0-7.36 3.13-7.813 7.125-1.794.3-3.246 1.52-3.843 3.22C1.884 16.054 0 18.248 0 21c0 3.324 2.676 6 6 6h20c3.324 0 6-2.676 6-6 0-1.76-.855-3.336-2.094-4.438-.232-3.514-3.035-6.318-6.562-6.5C22.14 7.133 19.378 5 16 5zm0 2c2.762 0 4.97 1.77 5.75 4.28l.22.72H23c2.755 0 5 2.245 5 5v.5l.406.313C29.35 18.52 30 19.733 30 21c0 2.276-1.724 4-4 4H6c-2.276 0-4-1.724-4-4 0-2.02 1.45-3.588 3.28-3.906l.657-.125.125-.657C6.362 14.963 7.556 14 9 14h1v-1c0-3.37 2.63-6 6-6zm-1 5v6.563l-2.28-2.282-1.44 1.44 4 4 .72.686.72-.687 4-4-1.44-1.44L17 18.563V12h-2z"/>
    </symbol>
    <symbol id="gift" viewBox="0 0 32 32">
      <path d="M12 5c-1.645 0-3 1.355-3 3 0 .353.073.684.188 1H4v6h1v13h22V15h1V9h-5.188c.115-.316.188-.647.188-1 0-1.645-1.355-3-3-3-1.75 0-2.94 1.33-3.72 2.438-.103.148-.188.292-.28.437-.092-.145-.177-.29-.28-.438C14.94 6.33 13.75 5 12 5zm0 2c.626 0 1.436.67 2.063 1.563.152.217.13.23.25.437H12c-.565 0-1-.435-1-1s.435-1 1-1zm8 0c.565 0 1 .435 1 1s-.435 1-1 1h-2.313c.12-.206.098-.22.25-.438C18.564 7.672 19.375 7 20 7zM6 11h20v2h-9v-1h-2v1H6v-2zm1 4h18v11h-8V16h-2v10H7V15z"/>
    </symbol>
    <symbol id="idea" viewBox="0 0 32 32">
      <path d="M6.813 2.406L5.405 3.812 7.5 5.906 8.906 4.5 6.812 2.406zm18.375 0L23.093 4.5 24.5 5.906l2.094-2.093-1.407-1.407zM16 3.03c-.33.004-.664.023-1 .064-.01 0-.02-.002-.03 0-4.056.465-7.284 3.742-7.845 7.78-.448 3.25.892 6.197 3.125 8.095.956.818 1.547 1.913 1.75 3.03v6H14.28c.348.597.983 1 1.72 1s1.372-.403 1.72-1H20v-4h.094v-1.188c0-1.466.762-2.944 2-4.093C23.75 17.06 25 14.705 25 12c0-4.94-4.066-9.016-9-8.97zm0 2c3.865-.054 7 3.11 7 6.97 0 2.094-.97 3.938-2.313 5.28l.032.032c-1.345 1.254-2.203 2.896-2.44 4.688h-4.374c-.22-1.714-.955-3.373-2.344-4.563-1.767-1.5-2.82-3.76-2.468-6.312.437-3.15 2.993-5.683 6.125-6.03.262-.034.522-.06.78-.064zM2 12v2h3v-2H2zm25 0v2h3v-2h-3zM7.5 20.094l-2.094 2.093 1.407 1.407L8.905 21.5 7.5 20.094zm17 0L23.094 21.5l2.093 2.094 1.407-1.407-2.094-2.093zM14 24h4v2h-4v-2z"/>
    </symbol>
    <symbol id="info" viewBox="0 0 32 32">
      <path d="M16 3C8.832 3 3 8.832 3 16s5.832 13 13 13 13-5.832 13-13S23.168 3 16 3zm0 2c6.087 0 11 4.913 11 11s-4.913 11-11 11S5 22.087 5 16 9.913 5 16 5zm-1 5v2h2v-2h-2zm0 4v8h2v-8h-2z"/>
    </symbol>
    <symbol id="picturecolor" viewBox="0 0 48 48">
       <path fill="#F57C00" d="M40,41H8c-2.2,0-4-1.8-4-4V11c0-2.2,1.8-4,4-4h32c2.2,0,4,1.8,4,4v26C44,39.2,42.2,41,40,41z"/> <circle fill="#FFF9C4" cx="35" cy="16" r="3"/> <polygon fill="#942A09" points="20,16 9,32 31,32"/> <polygon fill="#BF360C" points="31,22 23,32 39,32"/>
    </symbol>
    <symbol id="servicescolor" viewBox="0 0 48 48">
       <path fill="#E65100" d="M25.6,34.4c0.1-0.4,0.1-0.9,0.1-1.4s0-0.9-0.1-1.4l2.8-2c0.3-0.2,0.4-0.6,0.2-0.9l-2.7-4.6 c-0.2-0.3-0.5-0.4-0.8-0.3L22,25.3c-0.7-0.6-1.5-1-2.4-1.4l-0.3-3.4c0-0.3-0.3-0.6-0.6-0.6h-5.3c-0.3,0-0.6,0.3-0.6,0.6L12.4,24 c-0.9,0.3-1.6,0.8-2.4,1.4l-3.1-1.4c-0.3-0.1-0.7,0-0.8,0.3l-2.7,4.6c-0.2,0.3-0.1,0.7,0.2,0.9l2.8,2c-0.1,0.4-0.1,0.9-0.1,1.4 s0,0.9,0.1,1.4l-2.8,2c-0.3,0.2-0.4,0.6-0.2,0.9l2.7,4.6c0.2,0.3,0.5,0.4,0.8,0.3l3.1-1.4c0.7,0.6,1.5,1,2.4,1.4l0.3,3.4 c0,0.3,0.3,0.6,0.6,0.6h5.3c0.3,0,0.6-0.3,0.6-0.6l0.3-3.4c0.9-0.3,1.6-0.8,2.4-1.4l3.1,1.4c0.3,0.1,0.7,0,0.8-0.3l2.7-4.6 c0.2-0.3,0.1-0.7-0.2-0.9L25.6,34.4z M16,38c-2.8,0-5-2.2-5-5c0-2.8,2.2-5,5-5c2.8,0,5,2.2,5,5C21,35.8,18.8,38,16,38z"/> <path fill="#FFA000" d="M41.9,15.3C42,14.8,42,14.4,42,14s0-0.8-0.1-1.3l2.5-1.8c0.3-0.2,0.3-0.5,0.2-0.8l-2.5-4.3 c-0.2-0.3-0.5-0.4-0.8-0.2l-2.9,1.3c-0.7-0.5-1.4-0.9-2.2-1.3l-0.3-3.1C36,2.2,35.8,2,35.5,2h-4.9c-0.3,0-0.6,0.2-0.6,0.5l-0.3,3.1 c-0.8,0.3-1.5,0.7-2.2,1.3l-2.9-1.3c-0.3-0.1-0.6,0-0.8,0.2l-2.5,4.3c-0.2,0.3-0.1,0.6,0.2,0.8l2.5,1.8C24,13.2,24,13.6,24,14 s0,0.8,0.1,1.3l-2.5,1.8c-0.3,0.2-0.3,0.5-0.2,0.8l2.5,4.3c0.2,0.3,0.5,0.4,0.8,0.2l2.9-1.3c0.7,0.5,1.4,0.9,2.2,1.3l0.3,3.1 c0,0.3,0.3,0.5,0.6,0.5h4.9c0.3,0,0.6-0.2,0.6-0.5l0.3-3.1c0.8-0.3,1.5-0.7,2.2-1.3l2.9,1.3c0.3,0.1,0.6,0,0.8-0.2l2.5-4.3 c0.2-0.3,0.1-0.6-0.2-0.8L41.9,15.3z M33,19c-2.8,0-5-2.2-5-5c0-2.8,2.2-5,5-5c2.8,0,5,2.2,5,5C38,16.8,35.8,19,33,19z"/>
    </symbol>
    <symbol id="tingle-logo-vcolor" viewBox="0 0 175.801 187.122">
       <g> <path d="M25.109,138.761v4.059H10.671v20.47c0,3.569,1.778,5.354,5.336,5.354c3.531,0,5.296-1.598,5.296-4.794l0.039-1.644
		l0.078-1.855h5.1l0.039,2.485c0,6.579-3.505,9.868-10.514,9.868c-7.245,0-10.867-2.741-10.867-8.224v-1.19v-20.47H0v-4.059h5.179
		v-8.048h5.493v8.048H25.109z"/> <path d="M36.879,124.449v5.494h-5.493v-5.494H36.879z M36.879,138.761v33.453h-5.493v-33.453H36.879z"/> <path d="M46.49,138.761h5.296l-0.157,4.549l0.157,0.105c1.674-3.429,5.832-5.144,12.476-5.144c5.361,0,8.99,0.84,10.887,2.519
		c1.896,1.68,2.845,4.899,2.845,9.658v21.766h-5.493v-21.346v-1.26c0-2.869-0.615-4.8-1.844-5.791
		c-1.23-0.991-3.596-1.487-7.101-1.487c-7.716,0-11.574,3.254-11.574,9.763v20.121H46.49V138.761z"/> <path d="M119.306,138.761v35.623c0,4.852-1.177,8.188-3.531,10.008c-2.354,1.82-6.67,2.729-12.947,2.729
		c-5.597,0-9.416-0.77-11.456-2.31c-2.04-1.54-3.06-4.421-3.06-8.644h5.296c0,2.869,0.595,4.736,1.785,5.599
		c1.19,0.863,3.799,1.295,7.827,1.295c4.185,0,6.996-0.56,8.435-1.68c1.438-1.12,2.158-3.313,2.158-6.579v-6.719l-0.118-0.035
		c-1.412,3.103-5.493,4.654-12.241,4.654c-5.545,0-9.364-1.219-11.456-3.657c-2.093-2.437-3.139-6.888-3.139-13.35
		c0-6.696,1.065-11.273,3.197-13.735c2.131-2.461,6.088-3.692,11.868-3.692c6.146,0,10.161,1.68,12.044,5.039l0.118-0.035
		l-0.275-4.514H119.306z M102.946,142.331c-4.316,0-7.114,0.811-8.396,2.432c-1.282,1.622-1.922,5.174-1.922,10.656
		c0,5.529,0.641,9.116,1.922,10.76c1.281,1.645,4.08,2.467,8.396,2.467c4.368,0,7.245-0.904,8.631-2.712
		c1.386-1.808,2.079-5.57,2.079-11.285c0-5.039-0.693-8.351-2.079-9.938C110.191,143.124,107.314,142.331,102.946,142.331z"/> <path d="M134.41,124.449v47.766h-5.493v-47.766H134.41z"/> <path d="M170.151,162.101h5.61l0.039,1.225c0,3.476-1.184,5.908-3.551,7.296c-2.367,1.388-6.519,2.082-12.456,2.082
		c-6.905,0-11.436-1.125-13.594-3.377c-2.157-2.251-3.236-6.981-3.236-14.189c0-6.672,1.085-11.151,3.256-13.437
		c2.171-2.286,6.421-3.429,12.751-3.429c6.905,0,11.43,0.991,13.574,2.974c2.144,1.983,3.217,6.159,3.217,12.527v2.625H148.77
		c0,5.272,0.634,8.631,1.903,10.078c1.268,1.447,4.231,2.17,8.886,2.17c4.42,0,7.29-0.344,8.611-1.032
		c1.321-0.688,1.981-2.176,1.981-4.462V162.101z M170.151,152.583l-0.039-1.574c0-3.616-0.667-5.966-2.001-7.051
		c-1.334-1.085-4.211-1.627-8.631-1.627c-4.447,0-7.33,0.636-8.651,1.907c-1.321,1.271-1.981,4.053-1.981,8.345H170.151z"/> </g> <g> <path fill="#DBDBDB" d="M116.154,112.96c-9.835,0-40.246-1.423-57.5-0.889c-17.289,0.535-23.996,0.521-28.147,0.354
		c-2.794-0.113-4.646-0.583-4.653-2.042c-0.005-1.066,0.881-2.31,2.874-2.339c11.237-0.164,63.183-1.382,70.927-1.719
		c25.751-1.12,39.186,0.121,39.186,2.477C138.84,111.939,129.154,112.96,116.154,112.96z"/> <g> <path d="M145.851,32.584c-1.188-3.396,4.471-3.601,3.763-6.018c-0.696-2.375-3.805-2.326-5.805-0.368
			c-1-1.837-1.86-3.958-3.901-3.547c-2.099,0.422-3.79,1.714-2.994,5.125c-0.563,0.339-1.522,1.416,0.053,2.829
			c0.801,0.718,1.317,0.467,2.031,0.718c1.603,0.564,2.581,2.87,3.786,4.71c5.825,8.891,6.797,26.396,1.741,33.197
			c-6.638,8.928-14.028,8.911-20.109,9.8c-4.808,0.703-18.577,0.809-32.14-0.998c-8.698-1.159-22.182-2.998-29.175-4.5
			c-6.057-1.301-18.417-4.918-22.047-11.031c-2.018-3.397-2.084-14.015,2.12-23.364c4.929-10.96,11.447-16.674,14.614-18.841
			c3.167-2.167,4.275-1.414,5.467-2.2c1.116-0.736,0.889-1.426,0.179-2.564c2.018-2.104,2.589-3.595,0.69-5.853
			c-1.164-1.384-4.544,0.851-5.796,1.848c-1.528-3.425-3.954-3.465-5.273-2.739c-1.319,0.725,2.328,5.769,0.139,7.595
			C43.729,24.28,36.92,32.881,32.814,40.67c-3.616,6.859-5.42,11.586-6.795,17.836c-1.856,8.438-1.418,12.276,1.921,16.428
			c1.736,2.158,3.515,3.198,4.273,3.976c-2.653,7.301-4.695,21.395-4.437,25.724c0.486-0.151,0.983-0.302,1.481-0.452
			c-0.363,1.083-0.744,2.153-1.081,2.971c-0.689,0.382-1.195,1.002-1.403,2.128c-0.427,2.306,1.168,2.321,4.125,2.321
			c2.726,0,7.733-0.23,7.505-2.321c-0.248-2.275-1.368-3.752-4.716-3.366c0.496-0.859,1.241-2.112,2.146-3.58
			c19.013-4.984,43.756-8.658,62.188-8.283c4.413,0.09,15.282,1.044,23.463,1.782c1.117,1.973,2.4,5.005,3.59,9.64
			c-0.252,0.712-0.354,1.564-0.268,2.614c0.262,3.17,2.718,2.325,6.844,0.793c3.803-1.413,7.89-3.261,6.591-5.784
			c-1.615-3.137-3.518-3.125-7.437-1.668c-0.28,0.104-0.552,0.206-0.821,0.308c-0.182-1.457-0.412-3.337-0.753-5.207
			c0.695,0.06,1.258,0.107,1.656,0.136c0.164-1.212-0.541-4.666-0.603-6.384c1.516-0.078,4.24-0.405,7.922-2.5
			c5.763-3.279,11.663-11.778,12.489-23.85C151.672,49.656,148.403,38.787,145.851,32.584z"/> <path d="M79.855,8.174C87.029,5.858,95.015,5.646,102.7,6.76c11.401,1.652,21.607,8.133,24.851,11.21
			c2.174,2.062,0.285-2.483,0.774-2.954c1.151-1.109,4.665,1.812,6.729,1.016c1.297-0.5-5.266-6.467-10.078-9.125
			c-9.959-5.5-20-7.75-30.625-6.625c-13.563,1.436-25.875,8.13-25.077,9.2C70.08,10.564,71.395,10.904,79.855,8.174z"/> <ellipse transform="matrix(-0.9207 -0.3902 0.3902 -0.9207 213.8221 115.5002)" cx="118.642" cy="36.033" rx="3.5" ry="4.25"/> <ellipse transform="matrix(0.9207 0.3902 -0.3902 0.9207 19.7257 -31.9419)" cx="88.488" cy="32.584" rx="3.588" ry="4.742"/> <path d="M82.055,64.931c1.525,6.906,8.297,7.818,13.438,5.424c5.272-2.455,11.161-5.946,13.024-11.219
			c1.999-5.657-4.481-8.91-11.371-9.173C84.62,49.485,79.958,55.431,82.055,64.931z"/> </g> </g>
    </symbol>
    <symbol id="videocolor" viewBox="0 0 48 48">
       <path fill="#4CAF50" d="M8,12h22c2.2,0,4,1.8,4,4v16c0,2.2-1.8,4-4,4H8c-2.2,0-4-1.8-4-4V16C4,13.8,5.8,12,8,12z"/> <polygon fill="#388E3C" points="44,35 34,29 34,19 44,13"/>
    </symbol></svg>
